Simulation
nRows=34
nColumns=15
endheader
time  TH_x TH_y TH_z SC_y  SC_z  SC_x  AC_y  AC_z  AC_x  GH_y  GH_z  GH_yy  EL_x  PS_y
2.6910411985018725  0.000000  0.000000  0.000000  -29.29405725320705  2.2976662304526125  -1.1036373051881727  52.56555911444083  6.808419352652837  -1.3720295692091593  51.61011576567594  7.195971866824647  -12.981531111861445  15.906289369995205  120.000000
2.7312059925093632  0.000000  0.000000  0.000000  -29.250173576169548  2.1445443803091915  -1.1703519385480519  52.94913601452883  7.118834321720047  -1.1546363961261459  65.43118282180235  6.651012039776131  -24.45105509256528  16.65640416649696  120.000000
2.771370786516854  0.000000  0.000000  0.000000  -29.3412823412609  2.054146148081134  -1.1946547928690956  53.27467606912139  7.42064011763267  -0.9722312947270472  79.47210089082422  6.57972690985452  -36.48598206299617  17.321356920862144  120.000000
2.8115355805243447  0.000000  0.000000  0.000000  -29.53092658310103  2.0144724149546787  -1.1943740575072872  53.532848518109674  7.7069115286739684  -0.8281130212306158  91.9381808358049  6.877544552203589  -47.29255613698153  17.873987975378455  120.000000
2.851700374531835  0.000000  0.000000  0.000000  -29.779443162147025  2.0144696430346403  -1.178640039570457  53.726152210327314  7.978829997607893  -0.7192709929403415  102.01513964750824  7.403396434984463  -56.03581800641815  18.29889433902126  120.000000
2.8918651685393257  0.000000  0.000000  0.000000  -30.050675877465835  2.043404322012274  -1.1484771545665549  53.8654957618625  8.242402341052363  -0.6379975294856407  109.7825959659919  8.034107501356399  -62.760196097131434  18.592130936273044  120.000000
2.9320299625468165  0.000000  0.000000  0.000000  -30.31775705201333  2.0919036585191972  -1.1014799051431594  53.964959251830834  8.502990897751454  -0.5754033522590223  115.66377911942789  8.68654677695819  -67.85099187977487  18.760307620211094  120.000000
2.972194756554307  0.000000  0.000000  0.000000  -30.56330442783464  2.1521147700805003  -1.0364324929725333  54.03782425235636  8.762665060783684  -0.5242421067500632  120.09094521785283  9.31213654195659  -71.70464165274609  18.81899365407137  120.000000
3.012359550561798  0.000000  0.000000  0.000000  -30.779509668139678  2.217355752406009  -0.9548058369385046  54.09369170029385  9.02015970187392  -0.4796902165899695  123.4130331584555  9.883362731987763  -74.63646555476514  18.78907470783187  120.000000
3.0525243445692882  0.000000  0.000000  0.000000  -30.965344664485936  2.2838146530950327  -0.8603906442052526  54.137653547881804  9.272332773987683  -0.43996997875645355  125.89883991030938  10.38387259396071  -76.88313169464489  18.693955754171864  120.000000
3.092689138576779  0.000000  0.000000  0.000000  -31.12360908673296  2.349738365239586  -0.7581866793604326  54.172162720536555  9.514937430495653  -0.4066757974318664  127.7498646162824  10.806049162852661  -78.61594561539371  18.556819747675434  120.000000
3.1328539325842697  0.000000  0.000000  0.000000  -31.2578355300417  2.4122392703451117  -0.6529574480221955  54.19712050176319  9.742196085446597  -0.3807438951998844  129.1218918369775  11.148701591477108  -79.96241959262078  18.39861367034756  120.000000
3.1730187265917604  0.000000  0.000000  0.000000  -31.36996176799773  2.4674899727442363  -0.5498077019520545  54.21325939289711  9.948267500491095  -0.36249990606933663  130.1307565950124  11.415725234551232  -81.01282138746613  18.236333202229883  120.000000
3.2131835205992507  0.000000  0.000000  0.000000  -31.46098699251241  2.51258558776316  -0.4537675952067953  54.22233014761779  10.128062187430963  -0.35262808181631755  130.8619342955763  11.613552497745056  -81.82953437992744  18.081430859922975  120.000000
3.2533483146067415  0.000000  0.000000  0.000000  -31.531597586736407  2.5453064762080158  -0.3692457402767258  54.22602981999828  10.27747519840929  -0.3520421523920987  131.3804618113886  11.748886287291954  -82.45717314734601  17.939434209096213  120.000000
3.293513108614232  0.000000  0.000000  0.000000  -31.582273918735613  2.5639206082973303  -0.2998038177154274  54.22546757248357  10.393223047745405  -0.36135923184585006  131.73685477465025  11.827865891394913  -82.9282079656543  17.811213276040583  120.000000
3.333677902621723  0.000000  0.000000  0.000000  -31.613424467264725  2.5671893035291915  -0.24815273566443238  54.22143402298875  10.472846840510218  -0.38096438028701834  131.96988229528378  11.855856207005116  -83.2659035994117  17.69480814311656  120.000000
3.3738426966292137  0.000000  0.000000  0.000000  -31.6254393056652  2.5543875937057323  -0.21609921518353992  54.214309646746884  10.514747388589985  -0.4110080982761136  132.10876034697665  11.837017808672893  -83.48625348003422  17.58721563521187  120.000000
3.414007490636704  0.000000  0.000000  0.000000  -31.618734025155916  2.525435359548792  -0.20447701304469496  54.204135803731944  10.518228349901106  -0.4514435192788399  132.17421342829493  11.774168130977392  -83.59918003373463  17.485805929668558  120.000000
3.4541722846441947  0.000000  0.000000  0.000000  -31.593872847400462  2.4808821972037567  -0.2131203935625242  54.19058115285122  10.483580219809188  -0.5019962189408513  132.17837129849494  11.668720935453667  -83.60835497516085  17.38901243816068  120.000000
3.4943370786516854  0.000000  0.000000  0.000000  -31.551539473150967  2.422016045860806  -0.24075799623940322  54.17278767090124  10.412108965482966  -0.5621530242221958  132.12547406077604  11.520537225857955  -83.51203904175243  17.296260468113207  120.000000
3.534501872659176  0.000000  0.000000  0.000000  -31.49282438210947  2.3510424914320716  -0.2851638901924304  54.149508940334876  10.306112661515401  -0.631434314849165  132.0107580469863  11.328166240959028  -83.30200311666643  17.207334436088914  120.000000
3.574666666666667  0.000000  0.000000  0.000000  -31.419068399725923  2.2707827359153505  -0.34310467118733917  54.11883803882367  10.168664646320812  -0.70900424731643  131.81946126914931  11.08939929259465  -82.96268804766397  17.121425041846756  120.000000
3.614831460674157  0.000000  0.000000  0.000000  -31.33150518335798  2.1841287875889357  -0.4102646468447096  54.07861205581906  10.003467931687693  -0.793422181235526  131.52456862214393  10.802043282697367  -82.46891246239213  17.036542939526594  120.000000
3.654996254681648  0.000000  0.000000  0.000000  -31.23105837937844  2.094613863969721  -0.48231239136752097  54.02776520168578  9.814653248732695  -0.8832918610214971  131.08274808722467  10.46524572014179  -81.78244265678649  16.949004315006835  120.000000
3.6951610486891386  0.000000  0.000000  0.000000  -31.118716061765447  2.006471906124482  -0.5553279973314045  53.96571616757853  9.606713788113273  -0.9773549231843882  130.43621654761415  10.079335383012424  -80.85377652219516  16.85292097858846  120.000000
3.7353258426966294  0.000000  0.000000  0.000000  -30.99622219953888  1.9244042900248877  -0.6254912395348333  53.89115997344906  9.384906228192328  -1.0742641285950427  129.51012770218009  9.645260003287742  -79.61979412480343  16.740313639322938  120.000000
3.7754906367041197  0.000000  0.000000  0.000000  -30.865804617872293  1.8538831854185596  -0.688870566940315  53.80220586836297  9.155396305808207  -1.1728068354185262  128.2027825349476  9.165995454047845  -77.99445508992311  16.601680435378224  120.000000
3.8156554307116104  0.000000  0.000000  0.000000  -30.729587894344235  1.8003686805693062  -0.7416397969538243  53.69703505431574  8.924964422800057  -1.271625275645389  126.37580124840274  8.648548910770831  -75.85923967888519  16.42731773165141  120.000000
3.855820224719101  0.000000  0.000000  0.000000  -30.589155364911  1.768877163185898  -0.7807102211916932  53.574959108821126  8.700571999188748  -1.3687622345471346  123.8417291590209  8.107052511485799  -73.05136027579789  16.208625532440355  120.000000
3.895985018726592  0.000000  0.000000  0.000000  -30.445522090953176  1.7642648245308614  -0.8031420860949696  53.43649931491069  8.488811074403307  -1.4617381503646583  120.3582235993699  7.565540485209199  -69.35824403384258  15.939251644985108  120.000000
3.9361498127340826  0.000000  0.000000  0.000000  -30.300039850147765  1.791257475997979  -0.8052392755808048  53.28261963920323  8.296539430849702  -1.548153000732405  115.63911827182595  7.0602919991331605  -64.52954439653885  15.615206225123607  120.000000
3.976314606741573  0.000000  0.000000  0.000000  -30.15411545162453  1.854369393304072  -0.7819076489382676  53.11389408579785  8.131988452660755  -1.6248272288281858  109.42142323108031  6.639018814895102  -58.340771352031354  15.235680381836259  120.000000
4.016479400749064  0.000000  0.000000  0.000000  -30.006829643900637  1.9586313833661533  -0.7270027462433447  52.9331120620876  8.005179830872382  -1.6873022886891762  101.59983592046505  6.357421427749611  -50.72072050204867  14.805638017966722  120.000000
